<svg width="80" height="80" viewBox="0 0 80 80" xmlns="http://www.w3.org/2000/svg">
  <!-- Background -->
  <path fill="#000" d="M0 0h80v80H0z"/>
  <!-- Merge left -->
  <path d="M57.749 14l5.657 5.657L35.12 47.94l-5.657-5.657L57.75 14zM23 54.406h28v8H15v-36h8v28z" fill="#FFF"/>
  <!-- Merge right -->
  <path d="M20.657 14L15 19.657 43.284 47.94l5.657-5.657L20.657 14zm34.749 40.406h-28v8h36v-36h-8v28z" fill="#FFF"/>
  <!-- Restriction end -->
  <path d="M24.57 59.672A24.893 24.893 0 0 0 40 65c13.807 0 25-11.193 25-25 0-5.822-1.99-11.18-5.328-15.43L24.571 59.673zm-5.428-5.885l34.645-34.645A24.883 24.883 0 0 0 40 15c-13.807 0-25 11.193-25 25 0 5.095 1.524 9.835 4.142 13.787zM40 72C22.327 72 8 57.673 8 40 8 22.327 22.327 8 40 8c17.673 0 32 14.327 32 32 0 17.673-14.327 32-32 32z" fill="#FFF"/>
  <!-- Lane closed -->
  <path d="M40.556 33.485L66.012 8.03l5.657 5.657-25.456 25.456-5.657-5.657zm5.808 7.222l25.305 25.305-5.657 5.657-25.305-25.305 5.657-5.657zm-7.222 5.506L13.686 71.67 8.03 66.012l25.456-25.456 5.657 5.657zm-5.506-6.92L8.029 13.686l5.657-5.657 25.607 25.607-5.657 5.657z" fill="#DF0909"/>
  <!-- Lane open -->
  <path d="M36 8h8v40h-8V8zm4 53.142l19.799-19.799L65.456 47 40 72.456 14.544 47l5.657-5.657L40 61.143z" fill="#3EDF4E"/>
  <!-- Unknown -->
  <path d="M36 64h8v8h-8v-8zM19 26.37c.68-5.864 2.886-10.391 6.615-13.583C29.345 9.596 34.17 8 40.09 8c6.097 0 11.107 1.64 15.028 4.917C59.04 16.196 61 20.32 61 25.287c0 2.483-.57 4.895-1.71 7.235-1.139 2.34-3.84 5.343-8.102 9.011-3.256 2.83-5.305 5.062-6.149 6.694-.843 1.632-1.31 7.556-1.398 11.773h-7.637c0-3.35.126-8.798.378-10.344.251-1.545.77-3.054 1.554-4.527.784-1.473 1.805-2.86 3.063-4.16 1.258-1.299 3.026-2.916 5.305-4.851 2.901-2.513 4.714-4.484 5.44-5.914.724-1.43 1.087-2.881 1.087-4.354 0-3.033-1.228-5.697-3.685-7.994-2.457-2.296-5.446-3.444-8.968-3.444-7.163 0-11.485 4.275-12.964 12.824L19 26.37z" fill="#FFF"/>
  <!-- Speed limit -->
  <text font-family="Helvetica-Bold, Helvetica" font-size="24" font-weight="bold" text-anchor="middle" fill="#FFF">
    <tspan x="40" y="49">120</tspan>
  </text>
  <!-- Flashing -->
  <path d="M76 79a3 3 0 1 1 0-6 3 3 0 0 1 0 6zM4 79a3 3 0 1 1 0-6 3 3 0 0 1 0 6zM4 7a3 3 0 1 1 0-6 3 3 0 0 1 0 6zm72 0a3 3 0 1 1 0-6 3 3 0 0 1 0 6z" fill="#F5A623"/>
  <!-- Red ring -->
  <path d="M40 72C22.327 72 8 57.673 8 40 8 22.327 22.327 8 40 8c17.673 0 32 14.327 32 32 0 17.673-14.327 32-32 32zm0-7c13.807 0 25-11.193 25-25S53.807 15 40 15 15 26.193 15 40s11.193 25 25 25z" fill="#DF0909"/>
</svg>
