<svg width="80" height="80" viewBox="0 0 80 80" xmlns="http://www.w3.org/2000/svg">
  <!-- Background -->
  <path fill="#000" d="M0 0h80v80H0z"/>
  <!-- Restriction end -->
  <path d="M24.57 59.672A24.893 24.893 0 0 0 40 65c13.807 0 25-11.193 25-25 0-5.822-1.99-11.18-5.328-15.43L24.571 59.673zm-5.428-5.885l34.645-34.645A24.883 24.883 0 0 0 40 15c-13.807 0-25 11.193-25 25 0 5.095 1.524 9.835 4.142 13.787zM40 72C22.327 72 8 57.673 8 40 8 22.327 22.327 8 40 8c17.673 0 32 14.327 32 32 0 17.673-14.327 32-32 32z" fill="#FFF"/>
</svg>
