<svg width="80" height="80" viewBox="0 0 80 80" xmlns="http://www.w3.org/2000/svg">
  <!-- Background -->
  <path fill="#000" d="M0 0h80v80H0z"/>
  <!-- Unknown -->
  <path d="M36 64h8v8h-8v-8zM19 26.37c.68-5.864 2.886-10.391 6.615-13.583C29.345 9.596 34.17 8 40.09 8c6.097 0 11.107 1.64 15.028 4.917C59.04 16.196 61 20.32 61 25.287c0 2.483-.57 4.895-1.71 7.235-1.139 2.34-3.84 5.343-8.102 9.011-3.256 2.83-5.305 5.062-6.149 6.694-.843 1.632-1.31 7.556-1.398 11.773h-7.637c0-3.35.126-8.798.378-10.344.251-1.545.77-3.054 1.554-4.527.784-1.473 1.805-2.86 3.063-4.16 1.258-1.299 3.026-2.916 5.305-4.851 2.901-2.513 4.714-4.484 5.44-5.914.724-1.43 1.087-2.881 1.087-4.354 0-3.033-1.228-5.697-3.685-7.994-2.457-2.296-5.446-3.444-8.968-3.444-7.163 0-11.485 4.275-12.964 12.824L19 26.37z" fill="#FFF"/>
</svg>
